<svg xmlns="http://www.w3.org/2000/svg" viewBox="0 0 1200 900">
  <defs>
    <linearGradient id="bg3" x1="0%" y1="0%" x2="100%" y2="100%">
      <stop offset="0%" stop-color="#1a3a2a"/>
      <stop offset="50%" stop-color="#2d4a3e"/>
      <stop offset="100%" stop-color="#6b4c30"/>
    </linearGradient>
  </defs>
  <rect width="1200" height="900" fill="url(#bg3)"/>
  <!-- Grid of jars with wicks -->
  <g opacity="0.07">
    <rect x="200" y="300" width="80" height="160" rx="6" fill="#f7f3eb"/>
    <line x1="240" y1="300" x2="240" y2="240" stroke="#f7f3eb" stroke-width="1"/>
    <rect x="340" y="300" width="80" height="160" rx="6" fill="#f7f3eb"/>
    <line x1="380" y1="300" x2="380" y2="240" stroke="#f7f3eb" stroke-width="1"/>
    <rect x="480" y="300" width="80" height="160" rx="6" fill="#f7f3eb"/>
    <line x1="520" y1="300" x2="520" y2="240" stroke="#f7f3eb" stroke-width="1"/>
    <rect x="620" y="300" width="80" height="160" rx="6" fill="#f7f3eb"/>
    <line x1="660" y1="300" x2="660" y2="240" stroke="#f7f3eb" stroke-width="1"/>
    <rect x="760" y="300" width="80" height="160" rx="6" fill="#f7f3eb"/>
    <line x1="800" y1="300" x2="800" y2="240" stroke="#f7f3eb" stroke-width="1"/>
    <rect x="900" y="300" width="80" height="160" rx="6" fill="#f7f3eb"/>
    <line x1="940" y1="300" x2="940" y2="240" stroke="#f7f3eb" stroke-width="1"/>
  </g>
  <g opacity="0.06">
    <rect x="270" y="520" width="80" height="160" rx="6" fill="#f7f3eb"/>
    <line x1="310" y1="520" x2="310" y2="460" stroke="#f7f3eb" stroke-width="1"/>
    <rect x="410" y="520" width="80" height="160" rx="6" fill="#f7f3eb"/>
    <line x1="450" y1="520" x2="450" y2="460" stroke="#f7f3eb" stroke-width="1"/>
    <rect x="550" y="520" width="80" height="160" rx="6" fill="#f7f3eb"/>
    <line x1="590" y1="520" x2="590" y2="460" stroke="#f7f3eb" stroke-width="1"/>
    <rect x="690" y="520" width="80" height="160" rx="6" fill="#f7f3eb"/>
    <line x1="730" y1="520" x2="730" y2="460" stroke="#f7f3eb" stroke-width="1"/>
    <rect x="830" y="520" width="80" height="160" rx="6" fill="#f7f3eb"/>
    <line x1="870" y1="520" x2="870" y2="460" stroke="#f7f3eb" stroke-width="1"/>
  </g>
  <text x="600" y="800" text-anchor="middle" font-family="Georgia, serif" font-size="20" fill="#f7f3eb" opacity="0.15" letter-spacing="8">READY TO POUR</text>
</svg>
